# Blender 4.1.1
# www.blender.org
mtllib P_Mural.mtl
o P_Mural1
v -1.290017 11.037300 -81.241531
v -1.290017 13.037300 -81.241531
v -1.290017 11.037300 -87.241531
v -1.290017 13.037300 -87.241531
v -1.090017 11.037300 -81.241531
v -1.090017 13.037300 -81.241531
v -1.090017 11.037300 -87.241531
v -1.090017 13.037300 -87.241531
vn -1.0000 -0.0000 -0.0000
vn -0.0000 -0.0000 -1.0000
vn 1.0000 -0.0000 -0.0000
vn -0.0000 -0.0000 1.0000
vn -0.0000 -1.0000 -0.0000
vn -0.0000 1.0000 -0.0000
vt 0.009018 0.007215
vt 1.002337 0.016711
vt 0.998919 1.010029
vt 0.005600 1.000533
vt 0.375000 0.250000
vt 0.625000 0.250000
vt 0.625000 0.500000
vt 0.375000 0.500000
vt 0.625000 0.750000
vt 0.375000 0.750000
vt 0.625000 1.000000
vt 0.375000 1.000000
vt 0.125000 0.500000
vt 0.125000 0.750000
vt 0.875000 0.500000
vt 0.875000 0.750000
s 0
usemtl mural
f 1/1/1 2/2/1 4/3/1 3/4/1
f 3/5/2 4/6/2 8/7/2 7/8/2
f 7/8/3 8/7/3 6/9/3 5/10/3
f 5/10/4 6/9/4 2/11/4 1/12/4
f 3/13/5 7/8/5 5/10/5 1/14/5
f 8/7/6 4/15/6 2/16/6 6/9/6
