# Blender 4.1.1
# www.blender.org
mtllib fondo.mtl
o G_Fondo1
v 24.097027 -13.453093 1.762206
v 24.097027 -2.022797 1.762206
v 24.097027 -13.453093 -2.394265
v 24.097027 -2.022797 -2.394265
v 25.136147 -13.453093 1.762206
v 25.136147 -2.022797 1.762206
v 25.136147 -13.453093 -2.394265
v 25.136147 -2.022797 -2.394265
vn -1.0000 -0.0000 -0.0000
vn -0.0000 -0.0000 -1.0000
vn 1.0000 -0.0000 -0.0000
vn -0.0000 -0.0000 1.0000
vn -0.0000 -1.0000 -0.0000
vn -0.0000 1.0000 -0.0000
vt 0.375000 0.357165
vt 0.625000 0.357165
vt 0.625000 0.607165
vt 0.375000 0.607165
vt 0.375000 0.250000
vt 0.625000 0.250000
vt 0.625000 0.500000
vt 0.375000 0.500000
vt 0.625000 0.750000
vt 0.375000 0.750000
vt 0.625000 1.000000
vt 0.375000 1.000000
vt 0.125000 0.500000
vt 0.125000 0.750000
vt 0.875000 0.500000
vt 0.875000 0.750000
s 0
usemtl fondo
f 1/1/1 2/2/1 4/3/1 3/4/1
f 3/5/2 4/6/2 8/7/2 7/8/2
f 7/8/3 8/7/3 6/9/3 5/10/3
f 5/10/4 6/9/4 2/11/4 1/12/4
f 3/13/5 7/8/5 5/10/5 1/14/5
f 8/7/6 4/15/6 2/16/6 6/9/6
o G_Fondo4
v 15.981254 -13.451359 1.791356
v 15.981254 -2.021063 1.791356
v 15.981254 -13.451359 -2.365115
v 15.981254 -2.021063 -2.365115
v 17.020370 -13.451359 1.791356
v 17.020370 -2.021063 1.791356
v 17.020370 -13.451359 -2.365115
v 17.020370 -2.021063 -2.365115
vn -1.0000 -0.0000 -0.0000
vn -0.0000 -0.0000 -1.0000
vn 1.0000 -0.0000 -0.0000
vn -0.0000 -0.0000 1.0000
vn -0.0000 -1.0000 -0.0000
vn -0.0000 1.0000 -0.0000
vt 0.375000 0.000000
vt 0.625000 0.000000
vt 0.625000 0.250000
vt 0.375000 0.250000
vt 0.625000 0.500000
vt 0.375000 0.500000
vt 0.625000 0.750000
vt 0.375000 0.750000
vt 0.625000 1.000000
vt 0.375000 1.000000
vt 0.125000 0.500000
vt 0.125000 0.750000
vt 0.875000 0.500000
vt 0.875000 0.750000
s 0
usemtl fondo
f 9/17/7 10/18/7 12/19/7 11/20/7
f 11/20/8 12/19/8 16/21/8 15/22/8
f 15/22/9 16/21/9 14/23/9 13/24/9
f 13/24/10 14/23/10 10/25/10 9/26/10
f 11/27/11 15/22/11 13/24/11 9/28/11
f 16/21/12 12/29/12 10/30/12 14/23/12
o G_Fondo2
v 17.050177 -13.453093 2.832145
v 17.050177 -2.022797 2.832145
v 17.050177 -13.453093 1.793027
v 17.050177 -2.022797 1.793027
v 24.116179 -13.453093 2.832145
v 24.116179 -2.022797 2.832145
v 24.116179 -13.453093 1.793027
v 24.116179 -2.022797 1.793027
vn -1.0000 -0.0000 -0.0000
vn -0.0000 -0.0000 -1.0000
vn 1.0000 -0.0000 -0.0000
vn -0.0000 -0.0000 1.0000
vn -0.0000 -1.0000 -0.0000
vn -0.0000 1.0000 -0.0000
vt 0.375000 0.000000
vt 0.625000 0.000000
vt 0.625000 0.250000
vt 0.375000 0.250000
vt 0.625000 0.500000
vt 0.375000 0.500000
vt 0.625000 0.750000
vt 0.375000 0.750000
vt 0.625000 1.000000
vt 0.375000 1.000000
vt 0.125000 0.500000
vt 0.125000 0.750000
vt 0.875000 0.500000
vt 0.875000 0.750000
s 0
usemtl fondo
f 17/31/13 18/32/13 20/33/13 19/34/13
f 19/34/14 20/33/14 24/35/14 23/36/14
f 23/36/15 24/35/15 22/37/15 21/38/15
f 21/38/16 22/37/16 18/39/16 17/40/16
f 19/41/17 23/36/17 21/38/17 17/42/17
f 24/35/18 20/43/18 18/44/18 22/37/18
o G_Fondo3
v 17.050177 -13.453093 -2.374617
v 17.050177 -2.022797 -2.374617
v 17.050177 -13.453093 -3.413734
v 17.050177 -2.022797 -3.413734
v 24.116179 -13.453093 -2.374617
v 24.116179 -2.022797 -2.374617
v 24.116179 -13.453093 -3.413734
v 24.116179 -2.022797 -3.413734
vn -1.0000 -0.0000 -0.0000
vn -0.0000 -0.0000 -1.0000
vn 1.0000 -0.0000 -0.0000
vn -0.0000 -0.0000 1.0000
vn -0.0000 -1.0000 -0.0000
vn -0.0000 1.0000 -0.0000
vt 0.375000 0.000000
vt 0.625000 0.000000
vt 0.625000 0.250000
vt 0.375000 0.250000
vt 0.625000 0.500000
vt 0.375000 0.500000
vt 0.625000 0.750000
vt 0.375000 0.750000
vt 0.375000 0.376961
vt 0.625000 0.376961
vt 0.625000 0.626961
vt 0.375000 0.626961
vt 0.125000 0.500000
vt 0.125000 0.750000
vt 0.875000 0.500000
vt 0.875000 0.750000
s 0
usemtl fondo
f 25/45/19 26/46/19 28/47/19 27/48/19
f 27/48/20 28/47/20 32/49/20 31/50/20
f 31/50/21 32/49/21 30/51/21 29/52/21
f 29/53/22 30/54/22 26/55/22 25/56/22
f 27/57/23 31/50/23 29/52/23 25/58/23
f 32/49/24 28/59/24 26/60/24 30/51/24
