# Blender 4.1.1
# www.blender.org
mtllib P_Lija.mtl
o P_Lija
v 36.798248 18.560266 62.278816
v 36.798248 18.555908 62.274101
v 36.798248 18.586241 62.274101
v 36.798248 18.581884 62.278816
v 36.798248 18.555908 62.205391
v 36.798248 18.560266 62.200676
v 36.798248 18.581884 62.200676
v 36.798248 18.586241 62.205391
v 37.092270 18.555908 62.274117
v 37.109383 18.560205 62.274521
v 37.092270 18.560263 62.278816
v 37.092270 18.586241 62.274117
v 37.092270 18.581886 62.278816
v 37.109383 18.581944 62.274521
v 37.092270 18.555908 62.205376
v 37.092270 18.560263 62.200676
v 37.109383 18.560205 62.204975
v 37.092270 18.586241 62.205376
v 37.109383 18.581944 62.204975
v 37.092270 18.581886 62.200676
v 36.769127 18.556787 62.207703
v 36.769127 18.561152 62.202942
v 36.769127 18.561152 62.276550
v 36.769127 18.556787 62.271793
v 36.769127 18.585361 62.271793
v 36.769127 18.580997 62.276550
v 36.769127 18.580997 62.202942
v 36.769127 18.585361 62.207703
v 36.766949 18.557013 62.208328
v 36.751122 18.562943 62.212029
v 36.762875 18.561800 62.204605
v 36.766949 18.557013 62.271164
v 36.762875 18.561800 62.274891
v 36.751122 18.562943 62.267467
v 36.762875 18.580349 62.274891
v 36.766949 18.585136 62.271164
v 36.751122 18.579206 62.267467
v 36.766949 18.585136 62.208328
v 36.762875 18.580349 62.204605
v 36.751122 18.579206 62.212029
vn -0.0776 -0.0000 -0.9970
vn 1.0000 -0.0000 -0.0000
vn -0.1026 -0.9947 -0.0000
vn -0.0000 1.0000 -0.0000
vn -0.0776 -0.0000 0.9970
vn -0.0302 0.9995 -0.0000
vn -0.2569 -0.0000 0.9664
vn -0.0000 -1.0000 -0.0000
vn -0.0000 -0.0000 -1.0000
vn -0.0000 -0.0000 1.0000
vn -0.1026 0.9947 -0.0000
vn -1.0000 -0.0000 -0.0000
vn -0.2569 -0.0000 -0.9664
vn 0.1659 -0.7232 0.6704
vn 0.1659 0.7232 0.6704
vn 0.1659 -0.7232 -0.6704
vn 0.1659 0.7232 -0.6704
vn -0.4035 -0.7505 -0.5234
vn -0.4035 -0.7505 0.5234
vn -0.4035 0.7505 0.5234
vn -0.4035 0.7505 -0.5234
vn -0.0000 -0.7339 -0.6793
vn -0.0000 0.7339 -0.6793
vn 0.2436 -0.0000 -0.9699
vn 0.2436 -0.9699 -0.0000
vn 0.2436 0.9699 -0.0000
vn 0.2436 -0.0000 0.9699
vn -0.0000 -0.7339 0.6793
vn -0.0000 0.7339 0.6793
vn -0.0753 0.7336 -0.6754
vn -0.0753 0.7336 0.6754
vn -0.0753 -0.7336 0.6753
vn -0.0753 -0.7336 -0.6754
vn -0.3509 -0.9364 -0.0000
vn -0.5339 -0.0000 0.8455
vn -0.3509 0.9364 -0.0000
vn -0.5339 -0.0000 -0.8455
vn -0.2511 -0.7158 -0.6516
vn -0.2511 0.7158 -0.6516
vn -0.2511 0.7158 0.6516
vn -0.2511 -0.7158 0.6516
vn -0.0302 -0.9995 -0.0000
vt 0.134345 0.556003
vt 0.004086 0.556003
vt 0.009421 0.510393
vt 0.129010 0.510393
vt 0.437809 0.944468
vt 0.306830 0.944468
vt 0.306830 0.525431
vt 0.437809 0.525431
vt 0.911550 0.008508
vt 0.525371 0.008508
vt 0.529151 0.005029
vt 0.907770 0.005029
vt 0.446590 0.004073
vt 0.446494 0.442629
vt 0.032480 0.442629
vt 0.032383 0.004073
vt 0.272776 0.556003
vt 0.142517 0.556003
vt 0.147852 0.510393
vt 0.267441 0.510393
vt 0.432577 0.486955
vt 0.046397 0.486955
vt 0.151764 0.499535
vt 0.263529 0.499535
vt 0.925467 0.052834
vt 0.925564 0.491390
vt 0.511357 0.491390
vt 0.511454 0.052834
vt 0.134358 0.995927
vt 0.004073 0.995927
vt 0.272789 0.995927
vt 0.142504 0.995927
vt 0.428796 0.490434
vt 0.050178 0.490434
vt 0.618128 0.888331
vt 0.520137 0.888331
vt 0.520137 0.554270
vt 0.618128 0.554270
vt 0.013333 0.499535
vt 0.125098 0.499535
vt 0.463704 0.527846
vt 0.437462 0.499535
vt 0.280935 0.527846
vt 0.307177 0.499535
vt 0.463704 0.942053
vt 0.437462 0.970364
vt 0.280935 0.942053
vt 0.307177 0.970364
vt 0.653864 0.531992
vt 0.625015 0.509553
vt 0.653864 0.910610
vt 0.625015 0.933049
vt 0.513250 0.933049
vt 0.484401 0.910610
vt 0.484401 0.531992
vt 0.513250 0.509553
vt 0.953875 0.048405
vt 0.953875 0.486963
vt 0.474901 0.008500
vt 0.474901 0.447058
vt 0.483046 0.486963
vt 0.483046 0.048405
vt 0.004073 0.447058
vt 0.004073 0.008500
vt 0.461252 0.491390
vt 0.017721 0.491390
vt 0.496695 0.004073
vt 0.940226 0.004073
vt 0.655219 0.528211
vt 0.628927 0.499535
vt 0.483046 0.528211
vt 0.509338 0.499535
vt 0.483046 0.914391
vt 0.509338 0.943066
vt 0.655219 0.914391
vt 0.628927 0.943066
s 0
usemtl lija
f 7/1/1 6/2/1 22/3/1 27/4/1
f 17/5/2 19/6/2 14/7/2 10/8/2
f 21/9/3 24/10/3 32/11/3 29/12/3
f 18/13/4 8/14/4 3/15/4 12/16/4
f 1/17/5 4/18/5 26/19/5 23/20/5
f 3/15/6 8/14/6 28/21/6 25/22/6
f 23/20/7 26/19/7 35/23/7 33/24/7
f 5/25/8 15/26/8 9/27/8 2/28/8
f 6/2/9 7/1/9 20/29/9 16/30/9
f 11/31/10 13/32/10 4/18/10 1/17/10
f 25/22/11 28/21/11 38/33/11 36/34/11
f 34/35/12 37/36/12 40/37/12 30/38/12
f 27/4/13 22/3/13 31/39/13 39/40/13
f 9/41/14 10/8/14 11/42/14
f 12/43/15 13/44/15 14/7/15
f 15/45/16 16/46/16 17/5/16
f 18/47/17 19/6/17 20/48/17
f 29/49/18 30/38/18 31/50/18
f 32/51/19 33/52/19 34/35/19
f 35/53/20 36/54/20 37/36/20
f 38/55/21 39/56/21 40/37/21
f 15/26/22 5/25/22 6/57/22 16/58/22
f 8/14/23 18/13/23 20/59/23 7/60/23
f 19/6/24 17/5/24 16/46/24 20/48/24
f 9/41/25 15/45/25 17/5/25 10/8/25
f 18/47/26 12/43/26 14/7/26 19/6/26
f 13/44/27 11/42/27 10/8/27 14/7/27
f 2/28/28 9/27/28 11/61/28 1/62/28
f 12/16/29 3/15/29 4/63/29 13/64/29
f 7/60/30 27/65/30 28/21/30 8/14/30
f 26/66/31 4/63/31 3/15/31 25/22/31
f 1/62/32 23/67/32 24/10/32 2/28/32
f 22/68/33 6/57/33 5/25/33 21/9/33
f 29/49/34 32/51/34 34/35/34 30/38/34
f 33/52/35 35/53/35 37/36/35 34/35/35
f 36/54/36 38/55/36 40/37/36 37/36/36
f 39/56/37 31/50/37 30/38/37 40/37/37
f 21/69/38 29/49/38 31/50/38 22/70/38
f 38/55/39 28/71/39 27/72/39 39/56/39
f 25/73/40 36/54/40 35/53/40 26/74/40
f 32/51/41 24/75/41 23/76/41 33/52/41
f 5/25/42 2/28/42 24/10/42 21/9/42
