# Blender 4.1.1
# www.blender.org
mtllib acertijo_musico_bestia.mtl
o Cube
v -1.000000 2.000000 -1.000000
v -1.000000 -2.000000 -1.000000
v 1.000000 2.000000 -1.000000
v 1.000000 -2.000000 -1.000000
v -1.000000 2.000000 1.000000
v -1.000000 -2.000000 1.000000
v 1.000000 2.000000 1.000000
v 1.000000 -2.000000 1.000000
vn -0.0000 1.0000 -0.0000
vn 1.0000 -0.0000 -0.0000
vn -0.0000 -0.0000 1.0000
vn -0.0000 -1.0000 -0.0000
vn -0.0000 -0.0000 -1.0000
vn -1.0000 -0.0000 -0.0000
vt 0.526726 0.507375
vt 0.774206 0.507375
vt 0.774206 0.747542
vt 0.526726 0.747542
vt 0.257708 0.003242
vt 0.257708 0.492983
vt 0.001458 0.492983
vt 0.001458 0.003242
vt 0.255188 0.507017
vt 0.255188 0.994300
vt -0.001062 0.994300
vt -0.001062 0.507017
vt 0.125000 0.500000
vt 0.375000 0.500000
vt 0.375000 0.750000
vt 0.125000 0.750000
vt 0.774276 0.006455
vt 0.774276 0.493738
vt 0.523066 0.493738
vt 0.523066 0.006455
vt 0.516336 0.006301
vt 0.518161 0.496036
vt 0.261918 0.497860
vt 0.260093 0.008126
s 0
usemtl musico_bestia
f 1/1/1 5/2/1 7/3/1 3/4/1
f 4/5/2 3/6/2 7/7/2 8/8/2
f 8/9/3 7/10/3 5/11/3 6/12/3
f 6/13/4 2/14/4 4/15/4 8/16/4
f 2/17/5 1/18/5 3/19/5 4/20/5
f 6/21/6 5/22/6 1/23/6 2/24/6
