# Blender 4.1.1
# www.blender.org
mtllib acertijo-hombre.mtl
o E_Estatua1
v -1.000000 2.000001 -0.999998
v -1.000000 -1.999999 -1.000002
v -1.000000 1.999999 1.000002
v -1.000000 -2.000001 0.999998
v 1.000000 2.000001 -0.999998
v 1.000000 -1.999999 -1.000002
v 1.000000 1.999999 1.000002
v 1.000000 -2.000001 0.999998
vn -1.0000 -0.0000 -0.0000
vn -0.0000 -0.0000 1.0000
vn 1.0000 -0.0000 -0.0000
vn -0.0000 -0.0000 -1.0000
vn -0.0000 1.0000 -0.0000
vn -0.0000 -1.0000 -0.0000
vt 0.003771 0.496229
vt 0.003771 0.003771
vt 0.250000 0.003771
vt 0.250000 0.496229
vt 0.257541 0.496229
vt 0.257541 0.003771
vt 0.503771 0.003771
vt 0.503771 0.496229
vt 0.511312 0.496229
vt 0.511312 0.003771
vt 0.757541 0.003771
vt 0.757541 0.496229
vt 0.003771 0.996229
vt 0.003771 0.503771
vt 0.250000 0.503771
vt 0.250000 0.996229
vt 0.757677 0.750000
vt 0.511448 0.750000
vt 0.511448 0.503771
vt 0.757677 0.503771
vt 0.757541 0.750000
vt 0.511312 0.750000
vt 0.511312 0.503771
vt 0.757541 0.503771
s 0
usemtl Material.001
f 1/1/1 2/2/1 4/3/1 3/4/1
f 3/5/2 4/6/2 8/7/2 7/8/2
f 7/9/3 8/10/3 6/11/3 5/12/3
f 5/13/4 6/14/4 2/15/4 1/16/4
f 3/17/5 7/18/5 5/19/5 1/20/5
f 8/21/6 4/22/6 2/23/6 6/24/6
