# Blender 4.1.1
# www.blender.org
mtllib fondo.mtl
o P_SueloVacio
v -29.591265 6.731627 -75.071831
v -28.961081 9.731627 -75.702011
v -29.591265 6.731627 -85.071831
v -28.961081 9.731627 -84.441650
v -24.591265 6.731627 -75.071831
v -25.221449 9.731627 -75.702011
v -24.591265 6.731627 -85.071831
v -25.221449 9.731627 -84.441650
v -29.591265 9.731627 -75.071831
v -29.591265 9.731627 -85.071831
v -24.591265 9.731627 -85.071831
v -24.591265 9.731627 -75.071831
v -29.591265 9.731627 -75.071831
v -29.591265 9.731627 -85.071831
v -24.591265 9.731627 -85.071831
v -24.591265 9.731627 -75.071831
v -29.591265 9.731627 -75.071831
v -29.591265 9.731627 -85.071831
v -24.591265 9.731627 -85.071831
v -24.591265 9.731627 -75.071831
v -29.250729 9.731627 -75.412369
v -29.250729 9.731627 -84.731293
v -24.931801 9.731627 -84.731293
v -24.931801 9.731627 -75.412369
v -28.961081 6.802031 -75.702011
v -28.961081 6.802031 -84.441650
v -25.221449 6.802031 -84.441650
v -25.221449 6.802031 -75.702011
vn -1.0000 -0.0000 -0.0000
vn -0.0000 -0.0000 -1.0000
vn 1.0000 -0.0000 -0.0000
vn -0.0000 -0.0000 1.0000
vn -0.0000 -1.0000 -0.0000
vn -0.0000 1.0000 -0.0000
vt 0.375000 0.000000
vt 0.625000 0.000000
vt 0.625000 0.250000
vt 0.375000 0.250000
vt 0.625000 0.500000
vt 0.375000 0.500000
vt 0.625000 0.750000
vt 0.375000 0.750000
vt 0.625000 1.000000
vt 0.375000 1.000000
vt 0.125000 0.500000
vt 0.125000 0.750000
vt 0.656509 0.906476
vt 0.656509 0.343524
vt 0.875000 0.750000
vt 0.875000 0.500000
vt 0.857973 0.741487
vt 0.857973 0.508513
vt 0.642027 0.508513
vt 0.642027 0.741487
vt 0.843491 0.734245
vt 0.843491 0.515755
vt 0.656509 0.515755
vt 0.656509 0.734245
vt 0.109362 0.048828
vt 0.898544 0.048829
vt 0.898544 0.970999
vt 0.109362 0.970998
vt 0.555493 0.515755
vt 0.944507 0.515755
s 0
usemtl fondo
f 1/1/1 9/2/1 10/3/1 3/4/1
f 3/4/2 10/3/2 11/5/2 7/6/2
f 7/6/3 11/5/3 12/7/3 5/8/3
f 5/8/4 12/7/4 9/9/4 1/10/4
f 3/11/5 7/6/5 5/8/5 1/12/5
f 6/13/1 8/14/1 27/14/1 28/13/1
f 13/15/6 14/16/6 10/16/6 9/15/6
f 14/16/6 15/5/6 11/5/6 10/16/6
f 15/5/6 16/7/6 12/7/6 11/5/6
f 16/7/6 13/15/6 9/15/6 12/7/6
f 17/15/6 18/16/6 14/16/6 13/15/6
f 18/16/6 19/5/6 15/5/6 14/16/6
f 19/5/6 20/7/6 16/7/6 15/5/6
f 20/7/6 17/15/6 13/15/6 16/7/6
f 21/17/6 22/18/6 18/16/6 17/15/6
f 22/18/6 23/19/6 19/5/6 18/16/6
f 23/19/6 24/20/6 20/7/6 19/5/6
f 24/20/6 21/17/6 17/15/6 20/7/6
f 2/21/6 4/22/6 22/18/6 21/17/6
f 4/22/6 8/23/6 23/19/6 22/18/6
f 8/23/6 6/24/6 24/20/6 23/19/6
f 6/24/6 2/21/6 21/17/6 24/20/6
f 27/25/6 26/26/6 25/27/6 28/28/6
f 4/22/3 2/21/3 25/21/3 26/22/3
f 2/21/2 6/24/2 28/24/2 25/21/2
f 8/29/4 4/30/4 26/30/4 27/29/4
