# Blender 4.0.2
# www.blender.org
mtllib curaG.mtl
o V_Vida_Grande
v 0.202316 -0.092801 -0.016268
v 0.202316 -0.092801 0.028853
v 0.202316 0.092801 -0.016268
v 0.202316 0.092801 0.028853
v 0.249346 -0.092801 -0.016268
v 0.249346 -0.092801 0.028853
v 0.249346 0.092801 -0.016268
v 0.249346 0.092801 0.028853
v 0.207198 0.022560 -0.086509
v 0.207198 -0.022560 -0.086509
v 0.207198 0.022560 0.099093
v 0.207198 -0.022560 0.099093
v 0.254228 0.022560 -0.086509
v 0.254228 -0.022560 -0.086509
v 0.254228 0.022560 0.099093
v 0.254228 -0.022560 0.099093
v 0.259332 0.338926 -0.615559
v 0.259332 0.139572 -0.615559
v 0.259332 0.338926 0.615401
v 0.259332 0.139572 0.615401
v -0.264536 0.338926 -0.615559
v -0.264536 0.139572 -0.615559
v -0.264536 0.338926 0.615401
v -0.264536 0.139572 0.615401
v 0.228549 0.312759 -0.590377
v 0.228549 -0.149543 -0.590377
v 0.228549 0.312759 0.590219
v 0.228549 -0.149543 0.590219
v -0.233753 0.312759 -0.590377
v -0.233753 -0.149543 -0.590377
v -0.233753 0.312759 0.590219
v -0.233753 -0.149543 0.590219
v -0.057348 0.477144 0.187682
v -0.057348 0.549602 0.187682
v -0.057348 0.477144 -0.187779
v -0.057348 0.549602 -0.187779
v 0.051189 0.477144 0.187682
v 0.051189 0.549602 0.187682
v 0.051189 0.477144 -0.187779
v 0.051189 0.549602 -0.187779
v -0.057348 0.339631 0.115347
v -0.057348 0.339631 0.187804
v -0.057348 0.476728 0.115347
v -0.057348 0.476728 0.187804
v 0.051189 0.339631 0.115347
v 0.051189 0.339631 0.187804
v 0.051189 0.476728 0.115347
v 0.051189 0.476728 0.187804
v -0.057348 0.339631 -0.187341
v -0.057348 0.339631 -0.114883
v -0.057348 0.476728 -0.187341
v -0.057348 0.476728 -0.114883
v 0.051189 0.339631 -0.187341
v 0.051189 0.339631 -0.114883
v 0.051189 0.476728 -0.187341
v 0.051189 0.476728 -0.114883
vn -1.0000 -0.0000 -0.0000
vn -0.0000 1.0000 -0.0000
vn 1.0000 -0.0000 -0.0000
vn -0.0000 -1.0000 -0.0000
vn -0.0000 -0.0000 -1.0000
vn -0.0000 -0.0000 1.0000
vt 0.236389 0.633678
vt 0.236389 0.615012
vt 0.255055 0.615012
vt 0.255055 0.633678
vt 0.266652 0.633678
vt 0.266652 0.615012
vt 0.285318 0.615012
vt 0.285318 0.633678
vt 0.417719 0.641545
vt 0.417719 0.622879
vt 0.436385 0.622879
vt 0.436385 0.641545
vt 0.447982 0.641545
vt 0.447982 0.622879
vt 0.466648 0.622879
vt 0.466648 0.641545
vt 0.322464 0.654648
vt 0.303798 0.654648
vt 0.303798 0.635982
vt 0.322464 0.635982
vt 0.352727 0.654648
vt 0.334061 0.654648
vt 0.334061 0.635982
vt 0.352727 0.635982
vt 0.276068 0.603415
vt 0.271530 0.603415
vt 0.271530 0.526633
vt 0.276068 0.526633
vt 0.482782 0.641545
vt 0.478244 0.641545
vt 0.478244 0.622879
vt 0.482782 0.622879
vt 0.287664 0.526633
vt 0.292202 0.526633
vt 0.292202 0.603415
vt 0.287664 0.603415
vt 0.403373 0.654648
vt 0.398835 0.654648
vt 0.398835 0.635982
vt 0.403373 0.635982
vt 0.211005 0.526633
vt 0.229671 0.526633
vt 0.229671 0.603415
vt 0.211005 0.603415
vt 0.241267 0.526633
vt 0.259933 0.526633
vt 0.259933 0.603415
vt 0.241267 0.603415
vt 0.213720 0.515037
vt 0.005798 0.515037
vt 0.005798 0.005798
vt 0.213720 0.005798
vt 0.566216 0.505798
vt 0.586266 0.505798
vt 0.586266 0.713720
vt 0.566217 0.713720
vt 0.444835 0.005798
vt 0.464884 0.005798
vt 0.464884 0.515037
vt 0.444835 0.515037
vt 0.433238 0.515037
vt 0.225317 0.515037
vt 0.225317 0.005798
vt 0.433238 0.005798
vt 0.496529 0.515037
vt 0.476480 0.515037
vt 0.476480 0.005798
vt 0.496529 0.005798
vt 0.597862 0.505798
vt 0.617911 0.505798
vt 0.617911 0.713720
vt 0.597862 0.713720
vt 0.691612 0.494202
vt 0.508126 0.494202
vt 0.508126 0.005798
vt 0.691612 0.005798
vt 0.005798 0.526633
vt 0.052292 0.526633
vt 0.052292 0.710120
vt 0.005798 0.710120
vt 0.898292 0.005798
vt 0.944786 0.005798
vt 0.944786 0.494202
vt 0.898292 0.494202
vt 0.886695 0.494202
vt 0.703209 0.494202
vt 0.703209 0.005798
vt 0.886695 0.005798
vt 0.554620 0.994202
vt 0.508126 0.994202
vt 0.508126 0.505798
vt 0.554620 0.505798
vt 0.629508 0.505798
vt 0.676002 0.505798
vt 0.676002 0.689285
vt 0.629508 0.689285
vt 0.173237 0.526633
vt 0.180524 0.526633
vt 0.180524 0.681959
vt 0.173237 0.681959
vt 0.398836 0.581308
vt 0.406123 0.581308
vt 0.406123 0.624385
vt 0.398836 0.624385
vt 0.199408 0.681959
vt 0.192121 0.681959
vt 0.192121 0.526633
vt 0.199408 0.526633
vt 0.379952 0.581308
vt 0.387239 0.581308
vt 0.387239 0.624385
vt 0.379952 0.624385
vt 0.106966 0.681959
vt 0.063889 0.681959
vt 0.063889 0.526633
vt 0.106966 0.526633
vt 0.161641 0.681959
vt 0.118563 0.681959
vt 0.118563 0.526633
vt 0.161641 0.526633
vt 0.417719 0.611283
vt 0.417719 0.581308
vt 0.431507 0.581308
vt 0.431507 0.611283
vt 0.416917 0.569711
vt 0.386942 0.569711
vt 0.386942 0.526633
vt 0.416917 0.526633
vt 0.443104 0.611283
vt 0.443104 0.581308
vt 0.456891 0.581308
vt 0.456891 0.611283
vt 0.333773 0.569711
vt 0.303798 0.569711
vt 0.303798 0.526633
vt 0.333773 0.526633
vt 0.483873 0.526633
vt 0.483873 0.569711
vt 0.470085 0.569711
vt 0.470085 0.526633
vt 0.317586 0.581308
vt 0.317586 0.624385
vt 0.303798 0.624385
vt 0.303798 0.581308
vt 0.468488 0.611283
vt 0.468488 0.581308
vt 0.482276 0.581308
vt 0.482276 0.611283
vt 0.375345 0.569711
vt 0.345370 0.569711
vt 0.345370 0.526633
vt 0.375345 0.526633
vt 0.211005 0.644987
vt 0.211005 0.615012
vt 0.224792 0.615012
vt 0.224792 0.644987
vt 0.458488 0.569711
vt 0.428513 0.569711
vt 0.428513 0.526633
vt 0.458488 0.526633
vt 0.342971 0.581308
vt 0.342971 0.624385
vt 0.329183 0.624385
vt 0.329183 0.581308
vt 0.368355 0.581308
vt 0.368355 0.624385
vt 0.354567 0.624385
vt 0.354567 0.581308
s 0
usemtl Material.018
f 1/1/1 2/2/1 4/3/1 3/4/1
f 3/5/2 4/6/2 8/7/2 7/8/2
f 7/9/3 8/10/3 6/11/3 5/12/3
f 5/13/4 6/14/4 2/15/4 1/16/4
f 3/17/5 7/18/5 5/19/5 1/20/5
f 8/21/6 4/22/6 2/23/6 6/24/6
f 9/25/1 10/26/1 12/27/1 11/28/1
f 11/29/6 12/30/6 16/31/6 15/32/6
f 15/33/3 16/34/3 14/35/3 13/36/3
f 13/37/5 14/38/5 10/39/5 9/40/5
f 11/41/2 15/42/2 13/43/2 9/44/2
f 16/45/4 12/46/4 10/47/4 14/48/4
f 17/49/2 21/50/2 23/51/2 19/52/2
f 20/53/6 19/54/6 23/55/6 24/56/6
f 24/57/1 23/58/1 21/59/1 22/60/1
f 22/61/4 18/62/4 20/63/4 24/64/4
f 18/65/3 17/66/3 19/67/3 20/68/3
f 22/69/5 21/70/5 17/71/5 18/72/5
f 25/73/2 29/74/2 31/75/2 27/76/2
f 28/77/6 27/78/6 31/79/6 32/80/6
f 32/81/1 31/82/1 29/83/1 30/84/1
f 30/85/4 26/86/4 28/87/4 32/88/4
f 26/89/3 25/90/3 27/91/3 28/92/3
f 30/93/5 29/94/5 25/95/5 26/96/5
f 33/97/1 34/98/1 36/99/1 35/100/1
f 35/101/5 36/102/5 40/103/5 39/104/5
f 39/105/3 40/106/3 38/107/3 37/108/3
f 37/109/6 38/110/6 34/111/6 33/112/6
f 35/113/4 39/114/4 37/115/4 33/116/4
f 40/117/2 36/118/2 34/119/2 38/120/2
f 41/121/1 42/122/1 44/123/1 43/124/1
f 43/125/2 44/126/2 48/127/2 47/128/2
f 47/129/3 48/130/3 46/131/3 45/132/3
f 45/133/4 46/134/4 42/135/4 41/136/4
f 43/137/5 47/138/5 45/139/5 41/140/5
f 48/141/6 44/142/6 42/143/6 46/144/6
f 49/145/1 50/146/1 52/147/1 51/148/1
f 51/149/2 52/150/2 56/151/2 55/152/2
f 55/153/3 56/154/3 54/155/3 53/156/3
f 53/157/4 54/158/4 50/159/4 49/160/4
f 51/161/5 55/162/5 53/163/5 49/164/5
f 56/165/6 52/166/6 50/167/6 54/168/6
