# Blender 4.1.1
# www.blender.org
mtllib puente.mtl
o O_Puente
v -2.500000 -0.250000 5.800000
v -2.500000 0.250000 5.800000
v -2.500000 -0.250000 -5.800000
v -2.500000 0.250000 -5.800000
v 2.500000 -0.250000 5.800000
v 2.500000 0.250000 5.800000
v 2.500000 -0.250000 -5.800000
v 2.500000 0.250000 -5.800000
vn -1.0000 -0.0000 -0.0000
vn -0.0000 -0.0000 -1.0000
vn 1.0000 -0.0000 -0.0000
vn -0.0000 -0.0000 1.0000
vn -0.0000 -1.0000 -0.0000
vn -0.0000 1.0000 -0.0000
vt 0.375000 0.000000
vt 0.625000 0.000000
vt 0.625000 0.250000
vt 0.375000 0.250000
vt 0.625000 0.500000
vt 0.375000 0.500000
vt 0.625000 0.750000
vt 0.375000 0.750000
vt 0.625000 1.000000
vt 0.375000 1.000000
vt 0.125000 0.500000
vt 0.125000 0.750000
vt 0.012318 -0.001563
vt 0.998233 -0.005532
vt 0.991619 0.997580
vt 0.012318 1.005517
s 0
usemtl Puente
f 1/1/1 2/2/1 4/3/1 3/4/1
f 3/4/2 4/3/2 8/5/2 7/6/2
f 7/6/3 8/5/3 6/7/3 5/8/3
f 5/8/4 6/7/4 2/9/4 1/10/4
f 3/11/5 7/6/5 5/8/5 1/12/5
f 8/13/6 4/14/6 2/15/6 6/16/6
