# Blender 4.1.1
# www.blender.org
mtllib puerta.mtl
o Cube
v 0.110469 2.348965 -1.500000
v 0.110469 -2.351034 -1.500000
v -0.089531 2.348965 -1.500000
v -0.089531 -2.351034 -1.500000
v -0.089531 -2.351034 -0.154441
v 0.064199 2.348965 -0.154441
v -0.089531 2.348965 -0.154441
v 0.064199 -2.351034 -0.154441
v 0.110469 2.348965 -1.054182
v -0.089531 2.348965 -1.054183
v -0.089531 2.348965 -0.604312
v 0.110469 2.348965 -0.604312
v 0.110469 1.818039 -1.054182
v 0.110469 1.818039 -0.604312
v 0.110469 -1.699617 -1.500000
v 0.110469 -1.699617 -0.154441
v 0.110469 -1.699617 -1.202602
v 0.110469 -1.699617 -0.455893
v 0.056988 1.818039 -0.604312
v 0.056988 1.818039 -1.054182
v 0.056988 -1.699617 -1.202602
v 0.056988 -1.699617 -0.455893
v 0.064199 2.348965 -0.154441
v 0.064199 -1.699617 -0.154441
v 0.064199 -2.351034 -0.154441
v -0.089531 -2.351034 -0.000000
v 0.064199 2.348965 -0.000000
v -0.089531 2.348965 -0.000000
v 0.064199 -2.351035 -0.000000
v 0.064199 2.348965 -0.000000
v 0.110469 2.348965 -0.829247
v -0.089531 2.348965 -0.829247
v 0.070565 1.818039 -0.997948
v 0.056988 1.818039 -0.829247
v 0.056988 -1.699617 -0.829247
v 0.110469 2.348965 -0.941715
v 0.070565 -1.699617 -1.015925
v 0.056988 1.818039 -0.941715
v 0.056988 -1.699617 -1.015925
v -0.089531 2.348965 -0.941715
v 0.110469 2.348965 -0.997948
v 0.070565 1.818039 -0.941715
v 0.056988 1.818039 -0.997948
v 0.056988 -1.699617 -1.109263
v -0.089531 2.348965 -0.997949
v -0.089531 2.348965 -0.885481
v 0.110469 2.348965 -0.885481
v 0.070565 -1.699617 -0.829247
v 0.056988 1.818039 -0.885481
v 0.056988 -1.699617 -0.922586
v -0.089531 2.348965 -0.716780
v 0.110469 2.348965 -0.716780
v 0.070565 -1.699617 -0.735909
v 0.056988 1.818039 -0.716780
v 0.056988 -1.699617 -0.642570
v 0.110469 2.348965 -0.773013
v 0.070565 1.818039 -0.829247
v 0.056988 1.818039 -0.773013
v 0.056988 -1.699617 -0.735909
v -0.089531 2.348965 -0.773013
v -0.089531 2.348965 -0.660546
v 0.110469 2.348965 -0.660546
v 0.070565 1.818039 -0.773013
v 0.056988 1.818039 -0.660546
v 0.056988 -1.699617 -0.549231
v -0.089531 1.897678 -0.154441
v 0.110469 1.897678 -1.054182
v 0.110469 1.897678 -0.604312
v -0.089531 1.897678 -0.000000
v 0.110469 1.897678 -0.941715
v 0.110469 1.897678 -0.997948
v 0.110469 1.897678 -0.885481
v 0.110469 1.897678 -0.716780
v 0.110469 1.897678 -0.773013
v 0.110469 1.897678 -0.660546
v 0.110469 2.258708 -1.054182
v 0.110469 2.258708 -0.604312
v 0.110469 2.258708 -0.941715
v 0.110469 2.258708 -0.997948
v 0.110469 2.258708 -0.885481
v 0.110469 2.258708 -0.716780
v 0.110469 2.258708 -0.773013
v 0.110469 2.258708 -0.660546
v 0.096588 2.258708 -0.941715
v 0.096588 1.897678 -0.941715
v 0.096588 2.258708 -0.997948
v 0.096588 1.897678 -0.997948
v 0.096588 2.258708 -0.716780
v 0.096588 1.897678 -0.716780
v 0.096588 2.258708 -0.660546
v 0.096588 1.897678 -0.660546
v 0.096588 2.258708 -0.885481
v 0.096588 1.897678 -0.885481
v 0.096588 2.258708 -0.773013
v 0.096588 1.897678 -0.773013
v 0.070565 -1.699617 -1.109263
v 0.070565 1.818039 -0.885481
v 0.070565 -1.699617 -0.922586
v 0.070565 1.818039 -0.660546
v 0.070565 1.818039 -0.716780
v 0.070565 -1.699617 -0.549231
v 0.070565 -1.699617 -0.642570
v 0.110469 2.348965 1.500000
v 0.110469 -2.351034 1.500000
v -0.089531 2.348965 1.500000
v -0.089531 -2.351034 1.500000
v -0.089531 -2.351034 0.154441
v 0.064199 2.348965 0.154441
v -0.089531 2.348965 0.154441
v 0.064199 -2.351034 0.154441
v 0.110469 2.348965 1.054182
v -0.089531 2.348965 1.054182
v -0.089531 2.348965 0.604312
v 0.110469 2.348965 0.604312
v 0.110469 1.818039 1.054182
v 0.110469 1.818039 0.604312
v 0.110469 -1.699617 1.500000
v 0.110469 -1.699617 0.154441
v 0.110469 -1.699617 1.202601
v 0.110469 -1.699617 0.455893
v 0.056988 1.818039 0.604312
v 0.056988 1.818039 1.054182
v 0.056988 -1.699617 1.202601
v 0.056988 -1.699617 0.455893
v 0.064199 2.348965 0.154441
v 0.064199 -1.699617 0.154441
v 0.064199 -2.351034 0.154441
v -0.089531 -2.351034 -0.000000
v 0.064199 2.348965 -0.000000
v -0.089531 2.348965 -0.000000
v 0.064199 -2.351035 -0.000000
v 0.064199 2.348965 -0.000000
v 0.110469 2.348965 0.829247
v -0.089531 2.348965 0.829247
v 0.070565 1.818039 0.997948
v 0.056988 1.818039 0.829247
v 0.056988 -1.699617 0.829247
v 0.110469 2.348965 0.941715
v 0.070565 -1.699617 1.015924
v 0.056988 1.818039 0.941715
v 0.056988 -1.699617 1.015924
v -0.089531 2.348965 0.941715
v 0.110469 2.348965 0.997948
v 0.070565 1.818039 0.941715
v 0.056988 1.818039 0.997948
v 0.056988 -1.699617 1.109263
v -0.089531 2.348965 0.997949
v -0.089531 2.348965 0.885481
v 0.110469 2.348965 0.885481
v 0.070565 -1.699617 0.829247
v 0.056988 1.818039 0.885481
v 0.056988 -1.699617 0.922585
v -0.089531 2.348965 0.716779
v 0.110469 2.348965 0.716779
v 0.070565 -1.699617 0.735908
v 0.056988 1.818039 0.716779
v 0.056988 -1.699617 0.642570
v 0.110469 2.348965 0.773013
v 0.070565 1.818039 0.829247
v 0.056988 1.818039 0.773013
v 0.056988 -1.699617 0.735908
v -0.089531 2.348965 0.773013
v -0.089531 2.348965 0.660545
v 0.110469 2.348965 0.660545
v 0.070565 1.818039 0.773013
v 0.056988 1.818039 0.660545
v 0.056988 -1.699617 0.549231
v -0.089531 1.897678 0.154441
v 0.110469 1.897678 1.054182
v 0.110469 1.897678 0.604312
v -0.089531 1.897678 -0.000000
v 0.110469 1.897678 0.941715
v 0.110469 1.897678 0.997948
v 0.110469 1.897678 0.885481
v 0.110469 1.897678 0.716779
v 0.110469 1.897678 0.773013
v 0.110469 1.897678 0.660545
v 0.110469 2.258708 1.054182
v 0.110469 2.258708 0.604312
v 0.110469 2.258708 0.941715
v 0.110469 2.258708 0.997948
v 0.110469 2.258708 0.885481
v 0.110469 2.258708 0.716779
v 0.110469 2.258708 0.773013
v 0.110469 2.258708 0.660545
v 0.096588 2.258708 0.941715
v 0.096588 1.897678 0.941715
v 0.096588 2.258708 0.997948
v 0.096588 1.897678 0.997948
v 0.096588 2.258708 0.716779
v 0.096588 1.897678 0.716779
v 0.096588 2.258708 0.660545
v 0.096588 1.897678 0.660545
v 0.096588 2.258708 0.885481
v 0.096588 1.897678 0.885481
v 0.096588 2.258708 0.773013
v 0.096588 1.897678 0.773013
v 0.070565 -1.699617 1.109263
v 0.070565 1.818039 0.885481
v 0.070565 -1.699617 0.922585
v 0.070565 1.818039 0.660545
v 0.070565 1.818039 0.716779
v 0.070565 -1.699617 0.549231
v 0.070565 -1.699617 0.642570
vn -0.0000 1.0000 -0.0000
vn -0.0000 -1.0000 -0.0000
vn -1.0000 -0.0000 -0.0000
vn 1.0000 -0.0000 -0.0000
vn -0.0000 -0.0422 -0.9991
vn 0.9992 -0.0355 0.0172
vn -0.0000 -0.0422 0.9991
vn -0.0000 -0.0000 1.0000
vn -0.0000 0.0316 -0.9995
vn -0.0000 -0.0211 0.9998
vn -0.0000 -0.0211 -0.9998
vn -0.0000 0.0316 0.9995
vn -0.0000 -0.0000 -1.0000
vn 0.9982 0.0067 0.0599
vn -0.0000 0.0105 0.9999
vn -0.0000 0.0105 -0.9999
vn 0.9992 -0.0355 -0.0172
vn 0.9982 0.0067 -0.0599
vt 0.332143 0.944868
vt 0.332143 0.990709
vt 0.266177 0.990709
vt 0.266177 0.944868
vt 0.817586 0.836469
vt 0.817586 0.852350
vt 0.766881 0.852350
vt 0.766881 0.836469
vt 0.316881 0.836470
vt 0.316881 0.852351
vt 0.266177 0.852351
vt 0.266177 0.836470
vt 0.082836 0.009133
vt 0.088618 0.009133
vt 0.094401 0.009133
vt 0.100183 0.009133
vt 0.105965 0.009133
vt 0.111748 0.009133
vt 0.117530 0.009133
vt 0.163372 0.009133
vt 0.163372 0.461405
vt 0.025013 0.461405
vt 0.025013 0.052559
vt 0.025013 0.009133
vt 0.071272 0.009133
vt 0.077054 0.009133
vt 0.434676 0.009133
vt 0.440459 0.009133
vt 0.446241 0.009133
vt 0.446241 0.017818
vt 0.440459 0.017818
vt 0.434676 0.017818
vt 0.428894 0.017818
vt 0.417330 0.017818
vt 0.411547 0.017818
vt 0.405765 0.017818
vt 0.399983 0.017818
vt 0.399983 0.009133
vt 0.405765 0.009133
vt 0.411547 0.009133
vt 0.417330 0.009133
vt 0.423112 0.009133
vt 0.428894 0.009133
vt 0.332143 0.939085
vt 0.266177 0.939085
vt 0.332143 0.898609
vt 0.266177 0.898609
vt 0.399983 0.060222
vt 0.384721 0.398716
vt 0.354141 0.398716
vt 0.354141 0.009133
vt 0.399983 0.052559
vt 0.769259 0.818204
vt 0.751620 0.818204
vt 0.751620 0.479669
vt 0.769259 0.479669
vt 0.009133 0.461405
vt 0.009133 0.052559
vt 0.461502 0.398716
vt 0.492499 0.398716
vt 0.492499 0.461475
vt 0.354141 0.461399
vt 0.182597 0.818336
vt 0.173010 0.818768
vt 0.173010 0.479931
vt 0.178786 0.479670
vt 0.695242 0.836428
vt 0.712881 0.836428
vt 0.712881 0.842210
vt 0.712881 0.847992
vt 0.712881 0.853775
vt 0.712881 0.859557
vt 0.712881 0.865339
vt 0.712881 0.871122
vt 0.712881 0.876904
vt 0.712881 0.882686
vt 0.695242 0.882686
vt 0.266177 0.479670
vt 0.283816 0.479670
vt 0.283816 0.818205
vt 0.266177 0.818205
vt 0.920702 0.461400
vt 0.904821 0.461400
vt 0.904821 0.398716
vt 0.904821 0.009133
vt 0.920702 0.009133
vt 0.645251 0.479740
vt 0.078103 0.869257
vt 0.093364 0.869257
vt 0.093364 0.931941
vt 0.009133 0.009133
vt 0.645251 0.498005
vt 0.961711 0.009133
vt 0.966189 0.009133
vt 0.966189 0.347601
vt 0.961711 0.347601
vt 0.581499 0.818255
vt 0.577021 0.818255
vt 0.577021 0.479740
vt 0.581499 0.479740
vt 0.332143 0.915956
vt 0.332143 0.921739
vt 0.266177 0.921739
vt 0.266177 0.915956
vt 0.722563 0.910549
vt 0.718085 0.910549
vt 0.718085 0.900952
vt 0.722563 0.900952
vt 0.503031 0.818255
vt 0.493434 0.818363
vt 0.497249 0.479805
vt 0.503031 0.479740
vt 0.332143 0.927521
vt 0.332143 0.933303
vt 0.266177 0.933303
vt 0.266177 0.927521
vt 0.854231 0.836421
vt 0.854231 0.913202
vt 0.836591 0.913202
vt 0.836591 0.903605
vt 0.836591 0.894007
vt 0.836591 0.884409
vt 0.836591 0.874812
vt 0.836591 0.865214
vt 0.836591 0.855617
vt 0.836591 0.846019
vt 0.836591 0.836421
vt 0.938967 0.788080
vt 0.943446 0.788080
vt 0.943446 0.793862
vt 0.938967 0.793862
vt 0.599764 0.479740
vt 0.604242 0.479740
vt 0.604242 0.818256
vt 0.599764 0.818256
vt 0.943445 0.907281
vt 0.938967 0.907281
vt 0.938967 0.897683
vt 0.943445 0.897683
vt 0.966189 0.704334
vt 0.961711 0.704334
vt 0.961711 0.365866
vt 0.966189 0.365866
vt 0.332143 0.904392
vt 0.332143 0.910174
vt 0.266177 0.910174
vt 0.266177 0.904392
vt 0.938967 0.782297
vt 0.943446 0.782297
vt 0.363733 0.818298
vt 0.354141 0.818622
vt 0.354141 0.479935
vt 0.359920 0.479740
vt 0.530893 0.818363
vt 0.521296 0.818255
vt 0.521296 0.479740
vt 0.527078 0.479805
vt 0.447306 0.818622
vt 0.437714 0.818298
vt 0.441527 0.479740
vt 0.447306 0.479935
vt 0.676976 0.818767
vt 0.667388 0.818334
vt 0.671200 0.479669
vt 0.676976 0.479929
vt 0.751620 0.990708
vt 0.817586 0.990708
vt 0.401611 0.871629
vt 0.390046 0.871629
vt 0.390046 0.836888
vt 0.401611 0.836888
vt 0.093364 0.479670
vt 0.440459 0.052559
vt 0.446241 0.052559
vt 0.446241 0.060222
vt 0.405765 0.052559
vt 0.411547 0.052559
vt 0.417330 0.052559
vt 0.428894 0.052559
vt 0.434676 0.052559
vt 0.671967 0.871773
vt 0.667388 0.871773
vt 0.667388 0.837032
vt 0.671967 0.837032
vt 0.841170 0.943032
vt 0.836591 0.943032
vt 0.836591 0.931468
vt 0.841170 0.931468
vt 0.394624 0.948683
vt 0.390046 0.948683
vt 0.390046 0.942900
vt 0.394624 0.942900
vt 0.886556 0.871191
vt 0.881978 0.871191
vt 0.881978 0.836450
vt 0.886556 0.836450
vt 0.492499 0.009208
vt 0.733354 0.461404
vt 0.667388 0.461404
vt 0.667388 0.009133
vt 0.733354 0.009133
vt 0.733354 0.398719
vt 0.174986 0.871774
vt 0.169204 0.871774
vt 0.169204 0.837034
vt 0.174986 0.837034
vt 0.412890 0.942900
vt 0.417468 0.942900
vt 0.417468 0.948683
vt 0.412890 0.948683
vt 0.881978 0.889457
vt 0.886556 0.889457
vt 0.886556 0.924198
vt 0.881978 0.924198
vt 0.554381 0.924376
vt 0.549803 0.924376
vt 0.549803 0.889635
vt 0.554381 0.889635
vt 0.555585 0.871369
vt 0.549803 0.871369
vt 0.549803 0.836629
vt 0.555585 0.836629
vt 0.390046 0.889894
vt 0.394624 0.889894
vt 0.394624 0.924635
vt 0.390046 0.924635
vt 0.722664 0.944194
vt 0.718085 0.944194
vt 0.718085 0.938412
vt 0.722664 0.938412
vt 0.354141 0.938872
vt 0.358719 0.938872
vt 0.358719 0.944654
vt 0.354141 0.944654
vt 0.228716 0.931476
vt 0.233294 0.931476
vt 0.233294 0.943040
vt 0.228716 0.943040
vt 0.412890 0.889894
vt 0.417468 0.889894
vt 0.417468 0.924635
vt 0.412890 0.924635
vt 0.722563 0.920147
vt 0.718085 0.920147
vt 0.168000 0.943046
vt 0.172478 0.943046
vt 0.172478 0.948829
vt 0.168000 0.948829
vt 0.863813 0.818156
vt 0.859335 0.818156
vt 0.859335 0.479669
vt 0.863813 0.479669
vt 0.943445 0.851555
vt 0.938967 0.851555
vt 0.938967 0.841957
vt 0.943445 0.841957
vt 0.836591 0.479669
vt 0.841069 0.479669
vt 0.841069 0.818156
vt 0.836591 0.818156
vt 0.667388 0.943045
vt 0.671867 0.943045
vt 0.671867 0.948827
vt 0.667388 0.948827
vt 0.704839 0.479669
vt 0.710622 0.479669
vt 0.714437 0.818163
vt 0.704839 0.818163
vt 0.695242 0.818163
vt 0.699057 0.479669
vt 0.886556 0.009133
vt 0.886556 0.461404
vt 0.835851 0.461404
vt 0.835851 0.009133
vt 0.642987 0.882363
vt 0.577021 0.882362
vt 0.577021 0.836521
vt 0.642987 0.836521
vt 0.531537 0.990867
vt 0.480833 0.990867
vt 0.480833 0.974987
vt 0.531537 0.974987
vt 0.627725 0.990760
vt 0.577021 0.990760
vt 0.577021 0.974879
vt 0.627725 0.974879
vt 0.262172 0.009133
vt 0.267954 0.009133
vt 0.273737 0.009133
vt 0.319995 0.009133
vt 0.319995 0.052559
vt 0.319995 0.461405
vt 0.181637 0.461405
vt 0.181637 0.009133
vt 0.227478 0.009133
vt 0.233261 0.009133
vt 0.239043 0.009133
vt 0.244825 0.009133
vt 0.250608 0.009133
vt 0.256390 0.009133
vt 0.568588 0.009133
vt 0.574370 0.009133
vt 0.580152 0.009133
vt 0.585935 0.009133
vt 0.591717 0.009133
vt 0.597499 0.009133
vt 0.603281 0.009133
vt 0.603281 0.017818
vt 0.597499 0.017818
vt 0.591717 0.017818
vt 0.585935 0.017818
vt 0.574370 0.017818
vt 0.568588 0.017818
vt 0.562805 0.017818
vt 0.557023 0.017818
vt 0.557023 0.009133
vt 0.562805 0.009133
vt 0.642987 0.888145
vt 0.577021 0.888145
vt 0.577021 0.928621
vt 0.642987 0.928621
vt 0.603281 0.060222
vt 0.603281 0.052559
vt 0.649123 0.009133
vt 0.649123 0.398716
vt 0.618543 0.398716
vt 0.787525 0.818204
vt 0.787525 0.479669
vt 0.805164 0.479669
vt 0.805164 0.818204
vt 0.335876 0.052559
vt 0.335876 0.461405
vt 0.541762 0.398716
vt 0.649123 0.461399
vt 0.510765 0.461475
vt 0.510765 0.398716
vt 0.145156 0.818336
vt 0.148968 0.479670
vt 0.154744 0.479931
vt 0.154744 0.818768
vt 0.354141 0.883146
vt 0.354141 0.836888
vt 0.371781 0.836888
vt 0.371781 0.842670
vt 0.371781 0.848452
vt 0.371781 0.854235
vt 0.371781 0.860017
vt 0.371781 0.865799
vt 0.371781 0.871581
vt 0.371781 0.877364
vt 0.371781 0.883146
vt 0.319721 0.479670
vt 0.319721 0.818205
vt 0.302082 0.818205
vt 0.302082 0.479670
vt 0.904821 0.931932
vt 0.904821 0.479665
vt 0.920702 0.479665
vt 0.920702 0.869248
vt 0.920702 0.931932
vt 0.645251 0.516271
vt 0.126891 0.869257
vt 0.111630 0.931941
vt 0.111630 0.869257
vt 0.335876 0.009133
vt 0.645251 0.534536
vt 0.988932 0.009133
vt 0.988932 0.347601
vt 0.984454 0.347601
vt 0.984454 0.009133
vt 0.622508 0.818255
vt 0.622508 0.479740
vt 0.626986 0.479740
vt 0.626986 0.818255
vt 0.642987 0.911274
vt 0.577021 0.911274
vt 0.577021 0.905492
vt 0.642987 0.905492
vt 0.358619 0.911009
vt 0.358619 0.920607
vt 0.354141 0.920607
vt 0.354141 0.911009
vt 0.465571 0.818255
vt 0.465571 0.479740
vt 0.471353 0.479805
vt 0.475168 0.818363
vt 0.642987 0.899709
vt 0.577021 0.899709
vt 0.577021 0.893927
vt 0.642987 0.893927
vt 0.246356 0.913210
vt 0.228716 0.913210
vt 0.228716 0.903613
vt 0.228716 0.894015
vt 0.228716 0.884417
vt 0.228716 0.874820
vt 0.228716 0.865222
vt 0.228716 0.855624
vt 0.228716 0.846027
vt 0.228716 0.836429
vt 0.246356 0.836429
vt 0.938967 0.817910
vt 0.938967 0.812127
vt 0.943446 0.812127
vt 0.943446 0.817910
vt 0.886556 0.479669
vt 0.886556 0.818185
vt 0.882078 0.818185
vt 0.882078 0.479669
vt 0.943445 0.925546
vt 0.943445 0.935144
vt 0.938967 0.935144
vt 0.938967 0.925546
vt 0.984454 0.704334
vt 0.984454 0.365866
vt 0.988932 0.365866
vt 0.988932 0.704334
vt 0.642987 0.922839
vt 0.577021 0.922839
vt 0.577021 0.917056
vt 0.642987 0.917056
vt 0.938967 0.823692
vt 0.943446 0.823692
vt 0.381999 0.818298
vt 0.385812 0.479740
vt 0.391591 0.479935
vt 0.391591 0.818622
vt 0.549158 0.818363
vt 0.552973 0.479805
vt 0.558755 0.479740
vt 0.558755 0.818255
vt 0.409856 0.818622
vt 0.409856 0.479935
vt 0.415635 0.479740
vt 0.419448 0.818298
vt 0.200863 0.818768
vt 0.200863 0.479931
vt 0.206639 0.479670
vt 0.210451 0.818336
vt 0.465571 0.836628
vt 0.531537 0.836628
vt 0.419876 0.871629
vt 0.419876 0.836888
vt 0.431441 0.836888
vt 0.431441 0.871629
vt 0.111630 0.479670
vt 0.562805 0.052559
vt 0.568588 0.052559
vt 0.574370 0.052559
vt 0.585935 0.052559
vt 0.591717 0.052559
vt 0.597499 0.052559
vt 0.557023 0.060222
vt 0.557023 0.052559
vt 0.435734 0.924635
vt 0.435734 0.889894
vt 0.440312 0.889894
vt 0.440312 0.924635
vt 0.943546 0.722637
vt 0.943546 0.734202
vt 0.938967 0.734202
vt 0.938967 0.722637
vt 0.440312 0.942900
vt 0.440312 0.948683
vt 0.435734 0.948683
vt 0.435734 0.942900
vt 0.145156 0.924781
vt 0.145156 0.890040
vt 0.149735 0.890040
vt 0.149735 0.924781
vt 0.510765 0.009208
vt 0.751620 0.461404
vt 0.751620 0.398719
vt 0.751620 0.009133
vt 0.817586 0.009133
vt 0.817586 0.461404
vt 0.200863 0.871774
vt 0.200863 0.837034
vt 0.206645 0.837034
vt 0.206645 0.871774
vt 0.145156 0.948829
vt 0.145156 0.943046
vt 0.149735 0.943046
vt 0.149735 0.948829
vt 0.173782 0.890040
vt 0.173782 0.924781
vt 0.169204 0.924781
vt 0.169204 0.890040
vt 0.192048 0.924781
vt 0.192048 0.890040
vt 0.196626 0.890040
vt 0.196626 0.924781
vt 0.145156 0.871774
vt 0.145156 0.837034
vt 0.150939 0.837034
vt 0.150939 0.871774
vt 0.671967 0.890039
vt 0.671967 0.924780
vt 0.667388 0.924780
vt 0.667388 0.890039
vt 0.886556 0.942463
vt 0.886556 0.948245
vt 0.881978 0.948245
vt 0.881978 0.942463
vt 0.549803 0.948424
vt 0.549803 0.942641
vt 0.554381 0.942641
vt 0.554381 0.948424
vt 0.938967 0.764032
vt 0.938967 0.752467
vt 0.943546 0.752467
vt 0.943546 0.764032
vt 0.699820 0.900951
vt 0.699820 0.935693
vt 0.695242 0.935693
vt 0.695242 0.900951
vt 0.358619 0.901411
vt 0.354141 0.901411
vt 0.192048 0.948829
vt 0.192048 0.943046
vt 0.196526 0.943046
vt 0.196526 0.948829
vt 0.938967 0.347620
vt 0.938967 0.009133
vt 0.943446 0.009133
vt 0.943446 0.347620
vt 0.943445 0.869820
vt 0.943445 0.879418
vt 0.938967 0.879418
vt 0.938967 0.869820
vt 0.943445 0.365885
vt 0.943445 0.704372
vt 0.938967 0.704372
vt 0.938967 0.365885
vt 0.904821 0.955980
vt 0.904821 0.950197
vt 0.909300 0.950197
vt 0.909300 0.955980
vt 0.238314 0.479670
vt 0.244096 0.479670
vt 0.247911 0.818164
vt 0.238314 0.818164
vt 0.228716 0.818164
vt 0.232531 0.479670
vt 0.009133 0.479670
vt 0.059837 0.479670
vt 0.059837 0.931941
vt 0.009133 0.931941
s 0
usemtl Textura_Puerta
f 9/1/1 1/2/1 3/3/1 10/4/1
f 26/5/2 5/6/2 8/7/2 29/8/2
f 27/9/1 6/10/1 7/11/1 28/12/1
f 51/13/3 60/14/3 32/15/3 46/16/3 40/17/3 45/18/3 10/19/3 3/20/3 4/21/3 5/22/3 66/23/3 7/24/3 11/25/3 61/26/3
f 52/27/4 62/28/4 12/29/4 77/30/4 83/31/4 81/32/4 82/33/4 80/34/4 78/35/4 79/36/4 76/37/4 9/38/4 41/39/4 36/40/4 47/41/4 31/42/4 56/43/4
f 41/44/1 9/1/1 10/4/1 45/45/1
f 6/10/1 12/46/1 11/47/1 7/11/1
f 13/48/4 17/49/4 15/50/4 1/51/4 9/38/4 76/37/4 67/52/4
f 18/53/5 22/54/5 19/55/5 14/56/5
f 66/23/3 5/22/3 26/57/3 69/58/3
f 18/59/6 16/60/6 8/61/6 2/62/6 15/50/6 17/49/6
f 44/63/4 21/64/4 20/65/4 43/66/4
f 14/67/2 19/68/2 64/69/2 54/70/2 58/71/2 34/72/2 49/73/2 38/74/2 43/75/2 20/76/2 13/77/2
f 13/78/7 20/79/7 21/80/7 17/81/7
f 29/82/4 25/83/4 24/84/4 23/85/4 30/86/4
f 27/87/1 30/87/1 23/87/1 6/87/1
f 16/88/8 24/89/8 25/90/8 8/90/8
f 66/23/3 69/58/3 28/91/3 7/24/3
f 8/92/1 25/92/1 29/92/1
f 43/93/9 33/94/9 96/95/9 44/96/9
f 39/97/10 37/98/10 42/99/10 38/100/10
f 56/101/1 31/102/1 32/103/1 60/104/1
f 35/105/2 48/106/2 53/107/2 59/108/2
f 50/109/4 39/110/4 38/111/4 49/112/4
f 47/113/1 36/114/1 40/115/1 46/116/1
f 18/117/1 17/118/1 21/119/1 44/120/1 39/121/1 50/122/1 35/123/1 59/124/1 55/125/1 65/126/1 22/127/1
f 34/128/1 57/129/1 97/130/1 49/131/1
f 54/132/11 100/133/11 102/134/11 55/135/11
f 36/114/1 41/44/1 45/45/1 40/115/1
f 31/102/1 47/113/1 46/116/1 32/103/1
f 44/136/2 96/137/2 37/138/2 39/139/2
f 65/140/12 101/141/12 99/142/12 64/143/12
f 62/144/1 52/145/1 51/146/1 61/147/1
f 58/148/1 63/149/1 57/129/1 34/128/1
f 37/150/4 96/151/4 33/152/4 42/153/4
f 52/145/1 56/101/1 60/104/1 51/146/1
f 55/154/4 59/155/4 58/156/4 54/157/4
f 101/158/4 102/159/4 100/160/4 99/161/4
f 22/162/4 65/163/4 64/164/4 19/165/4
f 2/166/2 8/7/2 5/6/2 4/167/2
f 12/46/1 62/144/1 61/147/1 11/47/1
f 95/168/4 93/169/4 92/170/4 94/171/4
f 6/172/8 23/172/8 24/89/8 16/88/8
f 75/173/4 68/174/4 14/175/4 13/48/4 67/52/4 71/176/4 70/177/4 72/178/4 74/179/4 73/180/4
f 68/174/4 75/173/4 83/31/4 77/30/4
f 73/180/4 74/179/4 82/33/4 81/32/4
f 75/181/13 91/182/13 90/183/13 83/184/13
f 72/185/1 93/186/1 95/187/1 74/188/1
f 71/189/1 87/190/1 85/191/1 70/192/1
f 72/178/4 70/177/4 78/35/4 80/34/4
f 74/193/13 95/194/13 94/195/13 82/196/13
f 71/176/4 67/52/4 76/37/4 79/36/4
f 6/197/14 16/60/14 18/59/14 14/175/14 68/174/14 77/30/14 12/29/14
f 2/198/13 4/199/13 3/200/13 1/201/13 15/202/13
f 85/203/4 87/204/4 86/205/4 84/206/4
f 78/207/2 84/208/2 86/209/2 79/210/2
f 79/211/8 86/212/8 87/213/8 71/214/8
f 70/215/13 85/216/13 84/217/13 78/218/13
f 91/219/4 89/220/4 88/221/4 90/222/4
f 81/223/8 88/224/8 89/225/8 73/226/8
f 73/227/1 89/228/1 91/229/1 75/230/1
f 83/231/2 90/232/2 88/233/2 81/234/2
f 82/235/2 94/236/2 92/237/2 80/238/2
f 80/239/8 92/240/8 93/241/8 72/242/8
f 50/243/2 98/244/2 48/106/2 35/105/2
f 64/245/1 99/246/1 100/247/1 54/248/1
f 59/249/15 53/250/15 63/251/15 58/252/15
f 55/253/2 102/254/2 101/255/2 65/256/2
f 49/257/16 97/258/16 98/259/16 50/260/16
f 38/261/1 42/262/1 33/263/1 43/264/1
f 57/265/4 63/266/4 53/267/4 48/268/4 98/269/4 97/270/4
f 28/271/8 26/272/8 29/273/8 27/274/8
f 111/275/1 112/276/1 105/277/1 103/278/1
f 128/279/2 131/280/2 110/281/2 107/282/2
f 129/283/1 130/284/1 109/285/1 108/286/1
f 153/287/3 163/288/3 113/289/3 109/290/3 168/291/3 107/292/3 106/293/3 105/294/3 112/295/3 147/296/3 142/297/3 148/298/3 134/299/3 162/300/3
f 154/301/4 158/302/4 133/303/4 149/304/4 138/305/4 143/306/4 111/307/4 178/308/4 181/309/4 180/310/4 182/311/4 184/312/4 183/313/4 185/314/4 179/315/4 114/316/4 164/317/4
f 143/318/1 147/319/1 112/276/1 111/275/1
f 108/286/1 109/285/1 113/320/1 114/321/1
f 115/322/4 169/323/4 178/308/4 111/307/4 103/324/4 117/325/4 119/326/4
f 120/327/7 116/328/7 121/329/7 124/330/7
f 168/291/3 171/331/3 128/332/3 107/292/3
f 120/333/17 119/326/17 117/325/17 104/334/17 110/335/17 118/336/17
f 146/337/4 145/338/4 122/339/4 123/340/4
f 116/341/2 115/342/2 122/343/2 145/344/2 140/345/2 151/346/2 136/347/2 160/348/2 156/349/2 166/350/2 121/351/2
f 115/352/5 119/353/5 123/354/5 122/355/5
f 131/356/4 132/357/4 125/358/4 126/359/4 127/360/4
f 129/361/1 108/361/1 125/361/1 132/361/1
f 118/362/13 110/363/13 127/363/13 126/364/13
f 168/291/3 109/290/3 130/365/3 171/331/3
f 110/366/1 131/366/1 127/366/1
f 145/367/12 146/368/12 198/369/12 135/370/12
f 141/371/11 140/372/11 144/373/11 139/374/11
f 158/375/1 162/376/1 134/377/1 133/378/1
f 137/379/2 161/380/2 155/381/2 150/382/2
f 152/383/4 151/384/4 140/385/4 141/386/4
f 149/387/1 148/388/1 142/389/1 138/390/1
f 120/391/1 124/392/1 167/393/1 157/394/1 161/395/1 137/396/1 152/397/1 141/398/1 146/399/1 123/400/1 119/401/1
f 136/402/1 151/403/1 199/404/1 159/405/1
f 156/406/10 157/407/10 204/408/10 202/409/10
f 138/390/1 142/389/1 147/319/1 143/318/1
f 133/378/1 134/377/1 148/388/1 149/387/1
f 146/410/2 141/411/2 139/412/2 198/413/2
f 167/414/9 166/415/9 201/416/9 203/417/9
f 164/418/1 163/419/1 153/420/1 154/421/1
f 160/422/1 136/402/1 159/405/1 165/423/1
f 139/424/4 144/425/4 135/426/4 198/427/4
f 154/421/1 153/420/1 162/376/1 158/375/1
f 157/428/4 156/429/4 160/430/4 161/431/4
f 203/432/4 201/433/4 202/434/4 204/435/4
f 124/436/4 121/437/4 166/438/4 167/439/4
f 104/440/2 106/441/2 107/282/2 110/281/2
f 114/321/1 113/320/1 163/419/1 164/418/1
f 197/442/4 196/443/4 194/444/4 195/445/4
f 108/446/13 118/362/13 126/364/13 125/446/13
f 177/447/4 175/448/4 176/449/4 174/450/4 172/451/4 173/452/4 169/323/4 115/322/4 116/453/4 170/454/4
f 170/454/4 179/315/4 185/314/4 177/447/4
f 175/448/4 183/313/4 184/312/4 176/449/4
f 177/455/8 185/456/8 192/457/8 193/458/8
f 174/459/1 176/460/1 197/461/1 195/462/1
f 173/463/1 172/464/1 187/465/1 189/466/1
f 174/450/4 182/311/4 180/310/4 172/451/4
f 176/467/8 184/468/8 196/469/8 197/470/8
f 173/452/4 181/309/4 178/308/4 169/323/4
f 108/471/18 114/316/18 179/315/18 170/454/18 116/453/18 120/333/18 118/336/18
f 104/472/8 117/473/8 103/474/8 105/475/8 106/476/8
f 187/477/4 186/478/4 188/479/4 189/480/4
f 180/481/2 181/482/2 188/483/2 186/484/2
f 181/485/13 173/486/13 189/487/13 188/488/13
f 172/489/8 180/490/8 186/491/8 187/492/8
f 193/493/4 192/494/4 190/495/4 191/496/4
f 183/497/13 175/498/13 191/499/13 190/500/13
f 175/501/1 177/502/1 193/503/1 191/504/1
f 185/505/2 183/506/2 190/507/2 192/508/2
f 184/509/2 182/510/2 194/511/2 196/512/2
f 182/513/13 174/514/13 195/515/13 194/516/13
f 152/517/2 137/379/2 150/382/2 200/518/2
f 166/519/1 156/520/1 202/521/1 201/522/1
f 161/523/16 160/524/16 165/525/16 155/526/16
f 157/527/2 167/528/2 203/529/2 204/530/2
f 151/531/15 152/532/15 200/533/15 199/534/15
f 140/535/1 145/536/1 135/537/1 144/538/1
f 159/539/4 199/540/4 200/541/4 150/542/4 155/543/4 165/544/4
f 130/545/13 129/546/13 131/547/13 128/548/13
