# Blender 4.0.2
# www.blender.org
mtllib suelo.mtl
o S_Suelo1
v -4.566793 -0.250000 4.206676
v -4.566793 0.250000 4.206676
v -4.566793 -0.250000 -26.793324
v -4.566793 0.250000 -26.793324
v 5.433207 -0.250000 4.206676
v 5.433207 0.250000 4.206676
v 5.433207 -0.250000 -26.793324
v 5.433207 0.250000 -26.793324
vn -1.0000 -0.0000 -0.0000
vn -0.0000 -0.0000 -1.0000
vn 1.0000 -0.0000 -0.0000
vn -0.0000 -0.0000 1.0000
vn -0.0000 -1.0000 -0.0000
vn -0.0000 1.0000 -0.0000
vt 0.375000 0.000000
vt 0.625000 0.000000
vt 0.625000 0.250000
vt 0.375000 0.250000
vt 0.625000 0.500000
vt 0.375000 0.500000
vt 0.625000 0.750000
vt 0.375000 0.750000
vt 0.625000 1.000000
vt 0.375000 1.000000
vt 0.125000 0.500000
vt 0.125000 0.750000
vt 0.983133 0.988785
vt 0.790332 0.988928
vt 0.791272 0.791986
vt 0.985050 0.793571
s 0
usemtl suelo_arena
f 1/1/1 2/2/1 4/3/1 3/4/1
f 3/4/2 4/3/2 8/5/2 7/6/2
f 7/6/3 8/5/3 6/7/3 5/8/3
f 5/8/4 6/7/4 2/9/4 1/10/4
f 3/11/5 7/6/5 5/8/5 1/12/5
f 8/13/6 4/14/6 2/15/6 6/16/6
o S_Suelo2
v -4.865820 -0.250000 -26.804333
v -4.865820 0.250000 -26.804333
v -4.865820 -0.250000 -36.804333
v -4.865820 0.250000 -36.804333
v 16.134180 -0.250000 -26.804333
v 16.134180 0.250000 -26.804333
v 16.134180 -0.250000 -36.804333
v 16.134180 0.250000 -36.804333
vn -1.0000 -0.0000 -0.0000
vn -0.0000 -0.0000 -1.0000
vn 1.0000 -0.0000 -0.0000
vn -0.0000 -0.0000 1.0000
vn -0.0000 -1.0000 -0.0000
vn -0.0000 1.0000 -0.0000
vt 0.375000 0.000000
vt 0.625000 0.000000
vt 0.625000 0.250000
vt 0.375000 0.250000
vt 0.625000 0.500000
vt 0.375000 0.500000
vt 0.625000 0.750000
vt 0.375000 0.750000
vt 0.625000 1.000000
vt 0.375000 1.000000
vt 0.125000 0.500000
vt 0.125000 0.750000
vt 0.716204 0.675778
vt 0.985711 0.669814
vt 0.987982 0.982852
vt 0.721786 0.987022
s 0
usemtl suelo_arena
f 9/17/7 10/18/7 12/19/7 11/20/7
f 11/20/8 12/19/8 16/21/8 15/22/8
f 15/22/9 16/21/9 14/23/9 13/24/9
f 13/24/10 14/23/10 10/25/10 9/26/10
f 11/27/11 15/22/11 13/24/11 9/28/11
f 16/29/12 12/30/12 10/31/12 14/32/12
o S_Suelo3
v 16.011459 -0.250000 -27.219929
v 16.011459 0.250000 -27.219929
v 16.011459 -0.250000 -47.219929
v 16.011459 0.250000 -47.219929
v 26.011459 -0.250000 -27.219929
v 26.011459 0.250000 -27.219929
v 26.011459 -0.250000 -47.219929
v 26.011459 0.250000 -47.219929
vn -1.0000 -0.0000 -0.0000
vn -0.0000 -0.0000 -1.0000
vn 1.0000 -0.0000 -0.0000
vn -0.0000 -0.0000 1.0000
vn -0.0000 -1.0000 -0.0000
vn -0.0000 1.0000 -0.0000
vt 0.375000 0.000000
vt 0.625000 0.000000
vt 0.625000 0.250000
vt 0.375000 0.250000
vt 0.625000 0.500000
vt 0.375000 0.500000
vt 0.625000 0.750000
vt 0.375000 0.750000
vt 0.625000 1.000000
vt 0.375000 1.000000
vt 0.125000 0.500000
vt 0.125000 0.750000
vt 0.663930 0.614878
vt 0.988366 0.613171
vt 0.989987 0.989004
vt 0.679375 0.982417
s 0
usemtl suelo_arena
f 17/33/13 18/34/13 20/35/13 19/36/13
f 19/36/14 20/35/14 24/37/14 23/38/14
f 23/38/15 24/37/15 22/39/15 21/40/15
f 21/40/16 22/39/16 18/41/16 17/42/16
f 19/43/17 23/38/17 21/40/17 17/44/17
f 24/45/18 20/46/18 18/47/18 22/48/18
o S_Suelo4
v 26.015217 -0.250000 -37.231625
v 26.015217 0.250000 -37.231625
v 26.015217 -0.250000 -47.231625
v 26.015217 0.250000 -47.231625
v 40.015217 -0.250000 -37.231625
v 40.015217 0.250000 -37.231625
v 40.015217 -0.250000 -47.231625
v 40.015217 0.250000 -47.231625
vn -1.0000 -0.0000 -0.0000
vn -0.0000 -0.0000 -1.0000
vn 1.0000 -0.0000 -0.0000
vn -0.0000 -0.0000 1.0000
vn -0.0000 -1.0000 -0.0000
vn -0.0000 1.0000 -0.0000
vt 0.375000 0.000000
vt 0.625000 0.000000
vt 0.625000 0.250000
vt 0.375000 0.250000
vt 0.625000 0.500000
vt 0.375000 0.500000
vt 0.625000 0.750000
vt 0.375000 0.750000
vt 0.625000 1.000000
vt 0.375000 1.000000
vt 0.125000 0.500000
vt 0.125000 0.750000
vt 0.984887 0.988554
vt 0.673425 0.993322
vt 0.668860 0.654169
vt 0.982811 0.643743
s 0
usemtl suelo_arena
f 25/49/19 26/50/19 28/51/19 27/52/19
f 27/52/20 28/51/20 32/53/20 31/54/20
f 31/54/21 32/53/21 30/55/21 29/56/21
f 29/56/22 30/55/22 26/57/22 25/58/22
f 27/59/23 31/54/23 29/56/23 25/60/23
f 32/61/24 28/62/24 26/63/24 30/64/24
o S_Suelo7
v 16.215080 -0.250000 -58.789742
v 16.215080 0.250000 -58.789742
v 16.215080 -0.250000 -66.789742
v 16.215080 0.250000 -66.789742
v 40.215080 -0.250000 -58.789742
v 40.215080 0.250000 -58.789742
v 40.215080 -0.250000 -66.789742
v 40.215080 0.250000 -66.789742
vn -1.0000 -0.0000 -0.0000
vn -0.0000 -0.0000 -1.0000
vn 1.0000 -0.0000 -0.0000
vn -0.0000 -0.0000 1.0000
vn -0.0000 -1.0000 -0.0000
vn -0.0000 1.0000 -0.0000
vt 0.375000 0.000000
vt 0.625000 0.000000
vt 0.625000 0.250000
vt 0.375000 0.250000
vt 0.625000 0.500000
vt 0.375000 0.500000
vt 0.625000 0.750000
vt 0.375000 0.750000
vt 0.625000 1.000000
vt 0.375000 1.000000
vt 0.125000 0.500000
vt 0.125000 0.750000
vt 0.601024 0.672906
vt 0.966792 0.662805
vt 0.982427 0.982460
vt 0.616658 0.997405
s 0
usemtl suelo_arena
f 33/65/25 34/66/25 36/67/25 35/68/25
f 35/68/26 36/67/26 40/69/26 39/70/26
f 39/70/27 40/69/27 38/71/27 37/72/27
f 37/72/28 38/71/28 34/73/28 33/74/28
f 35/75/29 39/70/29 37/72/29 33/76/29
f 40/77/30 36/78/30 34/79/30 38/80/30
o S_Suelo_MExtra
v -11.532267 -0.250000 -20.043278
v -11.532267 0.250000 -20.043278
v -11.532267 -0.250000 -26.043278
v -11.532267 0.250000 -26.043278
v -4.532267 -0.250000 -20.043278
v -4.532267 0.250000 -20.043278
v -4.532267 -0.250000 -26.043278
v -4.532267 0.250000 -26.043278
vn -1.0000 -0.0000 -0.0000
vn -0.0000 -0.0000 -1.0000
vn 1.0000 -0.0000 -0.0000
vn -0.0000 -0.0000 1.0000
vn -0.0000 -1.0000 -0.0000
vn -0.0000 1.0000 -0.0000
vt 0.375000 0.000000
vt 0.625000 0.000000
vt 0.625000 0.250000
vt 0.375000 0.250000
vt 0.625000 0.500000
vt 0.375000 0.500000
vt 0.625000 0.750000
vt 0.375000 0.750000
vt 0.625000 1.000000
vt 0.375000 1.000000
vt 0.125000 0.500000
vt 0.125000 0.750000
vt 0.994779 0.996529
vt 0.561368 0.996529
vt 0.561368 0.563117
vt 0.994779 0.563117
s 0
usemtl suelo_arena
f 41/81/31 42/82/31 44/83/31 43/84/31
f 43/84/32 44/83/32 48/85/32 47/86/32
f 47/86/33 48/85/33 46/87/33 45/88/33
f 45/88/34 46/87/34 42/89/34 41/90/34
f 43/91/35 47/86/35 45/88/35 41/92/35
f 48/93/36 44/94/36 42/95/36 46/96/36
o S_Suelo8
v -1.087320 -0.250000 -66.775887
v -1.087320 0.250000 -66.775887
v -1.087320 -0.250000 -74.775887
v -1.087320 0.250000 -74.775887
v 26.412680 -0.250000 -66.775887
v 26.412680 0.250000 -66.775887
v 26.412680 -0.250000 -74.775887
v 26.412680 0.250000 -74.775887
vn -1.0000 -0.0000 -0.0000
vn -0.0000 -0.0000 -1.0000
vn 1.0000 -0.0000 -0.0000
vn -0.0000 -0.0000 1.0000
vn -0.0000 -1.0000 -0.0000
vn -0.0000 1.0000 -0.0000
vt 0.375000 0.000000
vt 0.625000 0.000000
vt 0.625000 0.250000
vt 0.375000 0.250000
vt 0.625000 0.500000
vt 0.375000 0.500000
vt 0.625000 0.750000
vt 0.375000 0.750000
vt 0.625000 1.000000
vt 0.375000 1.000000
vt 0.125000 0.500000
vt 0.125000 0.750000
vt 0.713871 0.680869
vt 0.984860 0.703088
vt 0.979613 0.991029
vt 0.707739 0.984179
s 0
usemtl suelo_arena
f 49/97/37 50/98/37 52/99/37 51/100/37
f 51/100/38 52/99/38 56/101/38 55/102/38
f 55/102/39 56/101/39 54/103/39 53/104/39
f 53/104/40 54/103/40 50/105/40 49/106/40
f 51/107/41 55/102/41 53/104/41 49/108/41
f 56/109/42 52/110/42 50/111/42 54/112/42
o S_Suelo9
v -0.837553 -0.250000 -74.700203
v -0.837553 0.250000 -74.700203
v -0.837553 -0.250000 -93.700203
v -0.837553 0.250000 -93.700203
v 14.162447 -0.250000 -74.700203
v 14.162447 0.250000 -74.700203
v 14.162447 -0.250000 -93.700203
v 14.162447 0.250000 -93.700203
vn -1.0000 -0.0000 -0.0000
vn -0.0000 -0.0000 -1.0000
vn 1.0000 -0.0000 -0.0000
vn -0.0000 -0.0000 1.0000
vn -0.0000 -1.0000 -0.0000
vn -0.0000 1.0000 -0.0000
vt 0.375000 0.000000
vt 0.625000 0.000000
vt 0.625000 0.250000
vt 0.375000 0.250000
vt 0.625000 0.500000
vt 0.375000 0.500000
vt 0.625000 0.750000
vt 0.375000 0.750000
vt 0.625000 1.000000
vt 0.375000 1.000000
vt 0.125000 0.500000
vt 0.125000 0.750000
vt 0.699161 0.648534
vt 0.967314 0.653569
vt 0.998247 0.989934
vt 0.740047 0.925181
s 0
usemtl suelo_arena
f 57/113/43 58/114/43 60/115/43 59/116/43
f 59/116/44 60/115/44 64/117/44 63/118/44
f 63/118/45 64/117/45 62/119/45 61/120/45
f 61/120/46 62/119/46 58/121/46 57/122/46
f 59/123/47 63/118/47 61/120/47 57/124/47
f 64/125/48 60/126/48 58/127/48 62/128/48
